<svg width="184" height="144" viewBox="0 0 184 144" fill="none" xmlns="http://www.w3.org/2000/svg">
<g clip-path="url(#clip0)">
<path d="M184 0H0V144H184V0Z" fill="#ECEFF1"/>
<path d="M106.523 22.0925C108.308 20.8337 111.322 20.6336 113.252 21.6434L168.421 50.5083C170.353 51.5191 170.538 53.4242 168.833 54.7655L74.6493 128.844C72.9451 130.184 70.1046 130.294 68.2803 129.072L13.3751 92.3124C11.5618 91.0984 11.5392 89.0933 13.323 87.835" fill="black"/>
<g filter="url(#filter0_d)">
<path d="M106.523 22.0925C108.308 20.8337 111.322 20.6336 113.252 21.6434L168.421 50.5083C170.353 51.5191 170.538 53.4242 168.833 54.7655L74.6493 128.844C72.9451 130.184 70.1046 130.294 68.2803 129.072L13.3751 92.3124C11.5618 91.0984 11.5392 89.0933 13.323 87.835" fill="#77909D"/>
</g>
<path d="M26.2849 78.8487L11.6777 82.2811V90.0932L11.7012 90.1066C11.5898 91.0126 12.0468 91.9408 13.0695 92.6208L68.3555 129.381C70.1925 130.602 73.0526 130.492 74.7687 129.152L169.606 55.0739C170.482 54.3891 170.863 53.5573 170.766 52.7727V44.899L161.839 46.9967L113.639 21.9518C111.696 20.9419 108.661 21.1421 106.864 22.4009L26.2849 78.8487Z" fill="#5F7D8C"/>
<path fill-rule="evenodd" clip-rule="evenodd" d="M71.9504 121.567L169.99 45.0814L161.839 46.9967L113.639 21.9518C111.696 20.9419 108.661 21.1421 106.864 22.4009L26.2849 78.8487L11.6777 82.2811V90.0932L11.7012 90.1066C11.5898 91.0126 12.0468 91.9408 13.0695 92.6208L68.3555 129.381C69.3647 130.052 70.6829 130.321 71.9504 130.205V121.567ZM74.7687 129.152L82.8153 122.867L74.2122 129.522C74.408 129.412 74.5943 129.288 74.7687 129.152Z" fill="#77909D"/>
<path d="M106.864 14.6362C108.66 13.3775 111.696 13.1773 113.639 14.1871L169.191 43.052C171.136 44.0628 171.323 45.9679 169.605 47.3092L74.7685 121.387C73.0524 122.728 70.1923 122.838 68.3553 121.616L13.0692 84.8561C11.2434 83.6421 11.2205 81.637 13.0168 80.3787" fill="#B0BEC5"/>
<path d="M97.3897 21.26L160.243 54.479L84.2801 113.934L22.6245 73.5937L97.3897 21.26Z" fill="white"/>
<path opacity="0.7" fill-rule="evenodd" clip-rule="evenodd" d="M160.243 62.4602V54.4999L84.2803 113.955V121.748L160.243 62.4602Z" fill="white"/>
<path d="M144.064 67.1422L120.475 85.6046L58.4141 48.5421L82.2558 31.8535L144.064 67.1422Z" fill="#FFECB3"/>
<path d="M96.3307 22.8833L156.231 57.7382L88.6436 110.605L26.5709 70.7343L96.3307 22.8833Z" fill="#B2EBF2"/>
<path d="M152.193 46.935L94.2558 15.4983L31.4195 59.4832L26.4456 60V62.9649L26.4136 62.9873L87.8892 103.447L156.849 49.5066L156.859 49.5056V49.4986L156.883 49.4799L156.859 49.467V46.4502L152.193 46.935Z" fill="#00838F"/>
<path d="M94.2554 12.4982L156.882 46.4799L87.8888 100.447L26.4132 59.9873L94.2554 12.4982Z" fill="#12A4AF"/>
<path fill-rule="evenodd" clip-rule="evenodd" d="M75.0027 42.9711L76.3123 63.9384C76.3502 64.5442 76.8539 65.0123 77.4545 64.9998L110.895 64.301C111.464 64.2891 111.935 63.8477 111.988 63.2748L112.996 52.4924C113.037 52.0442 112.813 51.6135 112.423 51.3951L90.567 39.1423C90.3355 39.0125 90.066 38.9697 89.8063 39.0214L75.9051 41.788C75.3532 41.8979 74.9673 42.4038 75.0027 42.9711ZM80.1779 43.2472L89.8375 41.3247L94.4193 43.8933L86.1186 46.8727L80.1779 43.2472ZM84.5306 48.5376L77.3226 44.1387L78.3212 60.126L84.5306 48.5376ZM100.04 55.369L88.5866 48.379L97.0207 45.3517L103.448 48.955L100.04 55.369ZM80.3423 61.0827L97.3392 56.3546L86.4399 49.7029L80.3423 61.0827ZM109.911 61.3932L101.95 56.5345L105.397 50.0473L110.694 53.0171L109.911 61.3932ZM83.2492 62.6122L106.787 62.1204L99.9708 57.9607L83.2492 62.6122Z" fill="#25C4D8"/>
</g>
<defs>
<filter id="filter0_d" x="8" y="18.9999" width="166" height="116.923" filterUnits="userSpaceOnUse" color-interpolation-filters="sRGB">
<feFlood flood-opacity="0" result="BackgroundImageFix"/>
<feColorMatrix in="SourceAlpha" type="matrix" values="0 0 0 0 0 0 0 0 0 0 0 0 0 0 0 0 0 0 127 0"/>
<feOffset dy="2"/>
<feGaussianBlur stdDeviation="2"/>
<feColorMatrix type="matrix" values="0 0 0 0 0.466667 0 0 0 0 0.564706 0 0 0 0 0.615686 0 0 0 0.25 0"/>
<feBlend mode="normal" in2="BackgroundImageFix" result="effect1_dropShadow"/>
<feBlend mode="normal" in="SourceGraphic" in2="effect1_dropShadow" result="shape"/>
</filter>
<clipPath id="clip0">
<rect width="184" height="144" fill="white"/>
</clipPath>
</defs>
</svg>
