<?xml version="1.0" encoding="UTF-8"?>
<svg width="184px" height="144px" viewBox="0 0 184 144" version="1.1" xmlns="http://www.w3.org/2000/svg" xmlns:xlink="http://www.w3.org/1999/xlink">
    <!-- Generator: Sketch 42 (36781) - http://www.bohemiancoding.com/sketch -->
    <title>format-native NEW - updated Feb 2017</title>
    <desc>Created with Sketch.</desc>
    <defs>
        <path d="M95.5233276,9.09263948 C97.3078296,7.83387141 100.322198,7.63370189 102.2523,8.64355636 L157.420851,37.5084518 C159.352658,38.5191982 159.538235,40.4243426 157.832902,41.7656369 L63.6493225,115.843748 C61.9450851,117.18418 59.1046264,117.294051 57.2802776,116.072613 L2.37513376,79.3125203 C0.561844823,78.098487 0.539162693,76.093424 2.32301041,74.8351174" id="path-1"></path>
        <filter x="-50%" y="-50%" width="200%" height="200%" filterUnits="objectBoundingBox" id="filter-2">
            <feOffset dx="0" dy="2" in="SourceAlpha" result="shadowOffsetOuter1"></feOffset>
            <feGaussianBlur stdDeviation="2" in="shadowOffsetOuter1" result="shadowBlurOuter1"></feGaussianBlur>
            <feColorMatrix values="0 0 0 0 0.466666667   0 0 0 0 0.564705882   0 0 0 0 0.615686275  0 0 0 1 0" type="matrix" in="shadowBlurOuter1"></feColorMatrix>
        </filter>
    </defs>
    <g id="Page-1" stroke="none" stroke-width="1" fill="none" fill-rule="evenodd">
        <g id="format-native-NEW---updated-Feb-2017">
            <rect id="bound-184*144" fill="#ECEFF1" x="0" y="0" width="184" height="144"></rect>
            <g id="native" transform="translate(12.000000, 13.000000)">
                <g id="phone">
                    <g id="shadow">
                        <use fill="black" fill-opacity="1" filter="url(#filter-2)" xlink:href="#path-1"></use>
                        <use fill="#77909D" fill-rule="evenodd" xlink:href="#path-1"></use>
                    </g>
                    <path d="M15.284727,65.8488581 L0.677524718,69.2812093 L0.677524718,77.0932678 L0.700947569,77.106675 C0.589541722,78.0127573 1.04657915,78.9408871 2.06924264,79.6208638 L57.3552632,116.380957 C59.1922674,117.602395 62.0524304,117.492523 63.7684901,116.152091 L158.60542,42.0739804 C159.482103,41.3891946 159.862496,40.5574401 159.765987,39.7727712 L159.765987,31.8991381 L150.838844,33.996808 L102.639257,8.9518999 C100.695765,7.94204544 97.6604862,8.14221495 95.8636051,9.40098303 L15.284727,65.8488581 L15.284727,65.8488581 Z" id="Combined-Shape" fill="#5F7D8C"></path>
                    <path d="M158.98978,32.0815286 L60.9501953,108.567383 L60.9501953,117.205301 C59.682656,117.321242 58.3645371,117.05203 57.3552632,116.380957 L2.06924264,79.6208638 C1.04657915,78.9408871 0.589541722,78.0127573 0.700947569,77.106675 L0.677524718,77.0932678 L0.677524718,69.2812093 L15.284727,65.8488581 L15.284727,65.8488581 L95.8636051,9.40098303 C97.6604862,8.14221495 100.695765,7.94204544 102.639257,8.9518999 L150.838844,33.996808 L158.98978,32.0815286 Z M71.8151108,109.866792 L63.7684901,116.152091 C63.594064,116.288337 63.4078177,116.41187 63.2120271,116.522583 L71.8151108,109.866792 Z" id="Combined-Shape" fill="#77909D"></path>
                    <path d="M95.8636051,1.63631627 C97.6604862,0.377548197 100.695765,0.177378679 102.639257,1.18723315 L158.190511,30.0521286 C160.135719,31.0628749 160.322584,32.9680194 158.60542,34.3093136 L63.7684901,108.387425 C62.0524304,109.727857 59.1922674,109.837728 57.3552632,108.61629 L2.06924264,71.856197 C0.243374929,70.6421638 0.220535453,68.6371007 2.01675771,67.3787942" id="phone-" fill="#B0BEC5"></path>
                    <polygon id="screen" fill="#FFD180" points="86.3894774 8.26008864 149.242585 41.4790565 73.2799258 100.933789 11.6242938 60.59378"></polygon>
                    <path d="M126.312253,59.4262527 L64.064907,23.8867095 L86.3894774,8.26008864 L149.242585,41.4790565 L126.312253,59.4262527 Z M102.680854,77.9221631 L73.2799258,100.933789 L11.6242938,60.59378 L40.186582,40.6009184 L102.680854,77.9221631 Z" id="Combined-Shape" fill="#FFFFFF"></path>
                </g>
                <g id="banner" transform="translate(28.000000, 6.000000)">
                    <polygon id="Combined-Shape" fill="#AC3C00" points="15.279846 24.6986648 12.0635986 24.0334473 12.0635986 26.9428711 12.1115558 26.9528575 11.9746094 27.050293 73.34375 63.0893555 97.511045 44.736148 97.572876 44.7490234 97.572876 44.6891921 97.59375 44.6733398 97.572876 44.6620135 97.572876 41.7193604 88.809085 39.9067425 34.9667969 10.6916832 15.279846 24.6986648"></polygon>
                    <polygon id="magic-mirror" fill="#E65100" transform="translate(54.941114, 32.896253) rotate(30.000000) translate(-54.941114, -32.896253) " points="25.1936901 20.7438834 96.4210508 18.8593848 84.6279426 46.9331221 13.4611765 46.4069488"></polygon>
                    <path d="M54.013916,26 L84.1677246,43.3366699 L81.1499023,45.5708008 L51,27.9946289 L54.013916,26 Z M48.013916,31 L78.1677246,48.3366699 L75.1499023,50.5708008 L45,32.9946289 L48.013916,31 Z M36.5,30 C31.2532949,30 27,26.6421356 27,22.5 C27,18.3578644 31.2532949,15 36.5,15 C41.7467051,15 46,18.3578644 46,22.5 C46,26.6421356 41.7467051,30 36.5,30 Z" id="Combined-Shape" fill="#F57C02"></path>
                    <polygon id="Path-4" fill-opacity="0.143002717" fill="#000000" points="39.0212402 5.02563477 28.9951172 11.9355469 87.3193359 45.3461914 98.0126953 37.1914063"></polygon>
                    <path d="M27.5974121,56.5405273 L56.0336914,74.7473145 L53.0158691,76.9814453 L24.8588867,58.6206055 L27.5974121,56.5405273 Z M21.3223877,61.2023926 L49.5227051,79.6296387 L46.5048828,81.8637695 L18.4658203,63.3649902 L21.3223877,61.2023926 Z M9.5,60 C4.25329488,60 0,56.6421356 0,52.5 C0,48.3578644 4.25329488,45 9.5,45 C14.7467051,45 19,48.3578644 19,52.5 C19,56.6421356 14.7467051,60 9.5,60 Z" id="Combined-Shape" fill="#F57C02"></path>
                </g>
                <polygon id="Path-4" fill-opacity="0.143002717" fill="#000000" points="67.0212402 11.0256348 56.9951172 17.9355469 115.319336 51.3461914 126.012695 43.1914063"></polygon>
                <g id="toolbar" transform="translate(53.000000, 2.000000)">
                    <polygon id="Path-4" fill="#77909D" points="11.7490234 2.09375 0.685546875 7.76574707 0.685546875 9.82226562 63.3193359 44.3461914 74.0126953 36.1914062 74.0126953 34.2525635"></polygon>
                    <polygon id="Path-4" fill="#CFD8DC" points="11.7490234 0.09375 0.685546875 7.82226562 63.3193359 42.3461914 74.0126953 34.1914062"></polygon>
                    <path d="M49.0873245,28.5228532 L47.8050449,27.8023415 L46.7776563,28.4363377 L46,27.9993734 L51.124401,25 L51.8021077,25.3808028 L49.3275887,29.8691423 L48.5499324,29.432178 L49.0873245,28.5228532 Z M48.6372296,27.2888045 L49.5245866,27.7874096 L50.5020271,26.1361315 L48.6372296,27.2888045 Z M51.1413074,30.8882691 C51.1767164,30.8031869 51.2376061,30.7068525 51.3239783,30.599263 C51.1671426,30.6430333 51.0050859,30.6636801 50.8378035,30.661204 C50.6705211,30.6587279 50.5088726,30.613657 50.352853,30.5259897 C50.2260871,30.4547601 50.1287513,30.3677666 50.0608427,30.2650066 C49.9929341,30.1622467 49.9561959,30.0514309 49.9506269,29.9325561 C49.9450579,29.8136813 49.9713256,29.6904907 50.029431,29.5629804 C50.0875364,29.4354702 50.178406,29.3108952 50.3020428,29.1892518 C50.4500586,29.0436223 50.6071261,28.9286537 50.7732499,28.8443425 C50.9393738,28.7600314 51.1136784,28.7072368 51.2961689,28.6859572 C51.4786594,28.6646776 51.6667765,28.6761703 51.8605258,28.7204356 C52.0542751,28.764701 52.2519094,28.8434509 52.4534347,28.9566878 L52.7679101,29.1333912 L52.929856,28.9740563 C53.0604582,28.8455597 53.1336537,28.7251851 53.1494446,28.6129289 C53.1652356,28.5006728 53.105686,28.4066483 52.9707941,28.3308526 C52.8521542,28.264189 52.7286392,28.2418911 52.6002456,28.2639583 C52.4718519,28.2860256 52.3545453,28.3493135 52.2483222,28.4538241 L51.5437997,28.0579536 C51.6656951,27.9380235 51.8079032,27.8389308 51.9704281,27.7606727 C52.1329531,27.6824146 52.3038912,27.6304201 52.4832475,27.6046876 C52.6626037,27.5789551 52.845294,27.5813421 53.0313239,27.6118488 C53.2173537,27.6423554 53.3956891,27.7055508 53.5663355,27.8014369 C53.7191047,27.8872778 53.8395993,27.9872842 53.9278229,28.1014591 C54.0160466,28.2156341 54.0659312,28.3398931 54.0774783,28.4742399 C54.0890254,28.6085867 54.0589553,28.7518475 53.987267,28.9040266 C53.9155787,29.0562057 53.7970216,29.2136741 53.6315922,29.3764364 L52.4352821,30.5534592 C52.3551794,30.6322705 52.2857871,30.7043123 52.227103,30.7695869 C52.1684188,30.8348615 52.1174555,30.8950519 52.0742113,30.9501599 C52.0309671,31.0052679 51.9953854,31.056605 51.967465,31.1041729 C51.9395446,31.1517408 51.9162391,31.1985361 51.8975477,31.2445604 L51.8531432,31.288249 L51.1413074,30.8882691 Z M51.0836928,30.0443347 C51.1438253,30.0781231 51.2073238,30.1016901 51.2741899,30.1150363 C51.3410561,30.1283825 51.4074282,30.1340492 51.473308,30.1320366 C51.5391879,30.1300239 51.6037029,30.1211886 51.6668551,30.1055303 C51.7300073,30.0898721 51.7879347,30.069933 51.8406392,30.0457124 L52.3264769,29.5677075 L52.0363794,29.404702 C51.9437428,29.3526496 51.8524131,29.3181547 51.7623875,29.3012164 C51.6723619,29.2842781 51.5858198,29.2827552 51.5027586,29.2966478 C51.4196974,29.3105403 51.3410484,29.337678 51.2668092,29.3780617 C51.19257,29.4184454 51.1241069,29.4694756 51.0614179,29.531154 C50.9673843,29.6236715 50.9207732,29.7172622 50.9215833,29.8119289 C50.9223934,29.9065956 50.9764293,29.9840634 51.0836928,30.0443347 Z" id="Aa-Copy" fill="#445A65"></path>
                    <g id="Group" transform="translate(10.000000, 4.000000)">
                        <path d="M3.11783042,3.38440441 C3.25814707,2.84496195 3.81164478,2.30619848 4.34502422,2.18313697 L7.77242118,1.39236668 C8.30986495,1.26836745 8.6335062,1.60200713 8.49523964,2.137783 L7.43792158,6.23483651 C7.29967942,6.7705178 6.74944722,7.29625693 6.20555098,7.40981606 L2.81537366,8.11764514 C2.27299633,8.23088714 1.94396376,7.89729351 2.08737841,7.34594094 L3.11783042,3.38440441 Z" id="Rectangle-14" fill="#DB4437" transform="translate(5.290464, 4.753077) rotate(42.000000) translate(-5.290464, -4.753077) "></path>
                        <path d="M9.20810531,6.86231488 C9.33893183,6.32394971 9.88219743,5.78422433 10.4155211,5.6582225 L14.0462536,4.80043389 C14.5822644,4.67379721 14.905762,5.01188869 14.7728687,5.53945323 L13.7835736,9.46679229 C13.6488612,10.0015781 13.1042433,10.5478422 12.5731126,10.6853598 L8.95730878,11.6215445 C8.42350196,11.7597549 8.09535006,11.4414221 8.2276484,10.8970002 L9.20810531,6.86231488 Z" id="Rectangle-14-Copy" fill="#2AB6F6" transform="translate(11.500513, 8.213792) rotate(42.000000) translate(-11.500513, -8.213792) "></path>
                        <path d="M15.6176981,10.3408982 C15.7507595,9.80585735 16.297925,9.27225085 16.8432277,9.14828141 L20.242172,8.3755635 C20.7859519,8.25194026 21.1296798,8.58331302 21.0076411,9.12578926 L20.1541321,12.9197374 C20.0331091,13.4576989 19.5021844,13.9931668 18.9615817,14.1172759 L15.3926113,14.9366241 C14.8550069,15.0600449 14.527384,14.7250583 14.6601215,14.1913202 L15.6176981,10.3408982 Z" id="Rectangle-14-Copy-2" fill="#F5A623" transform="translate(17.831438, 11.655972) rotate(42.000000) translate(-17.831438, -11.655972) "></path>
                        <path d="M21.910252,13.7126189 C22.008883,13.1728741 22.5296489,12.634577 23.0643154,12.5123784 L26.4999827,11.7271527 C27.0387234,11.6040229 27.4017155,11.937452 27.3090254,12.48201 L26.6607731,16.290518 C26.5688544,16.8305439 26.0660386,17.3646897 25.5185111,17.4878841 L22.0119028,18.2768752 C21.4729676,18.3981363 21.1152028,18.063418 21.2146615,17.5191435 L21.910252,13.7126189 Z" id="Rectangle-14-Copy-3" fill="#009788" transform="translate(24.260768, 15.001642) rotate(42.000000) translate(-24.260768, -15.001642) "></path>
                        <path d="M28.1189257,17.2983848 C28.2071629,16.7545065 28.7085832,16.2089045 29.2489235,16.0773022 L33.0279333,15.1569076 C33.5637767,15.0264006 33.9492,15.3756547 33.8908956,15.9175162 L33.4814403,19.7228589 C33.4221979,20.2734384 32.9390704,20.8260232 32.402133,20.9571433 L28.2961979,21.9598127 C27.7593553,22.0909097 27.3959037,21.7549601 27.4839261,21.2124059 L28.1189257,17.2983848 Z" id="Rectangle-14-Copy-4" fill="#F57C02" transform="translate(30.683756, 18.558844) rotate(42.000000) translate(-30.683756, -18.558844) "></path>
                    </g>
                    <path d="M57.507019,32.6168213 L56.4074707,33.3618164 L57.507019,34.0177612 L56.7979126,34.628479 L54.7667236,33.4811401 L56.6397705,32.0951538 L57.507019,32.6168213 Z M61.5004272,31.0221558 L60.3887939,30.2087708 L59.5187988,31.0221558 L58.6693115,30.5426636 L60.2446899,29.3953857 L62.1082764,30.4594727 L61.5004272,31.0221558 Z M59.6836219,35.3087158 L60.5263062,35.8247681 L61.4564819,35.0562134 L62.3469849,35.6462402 L60.7640381,36.8705444 L59.0612793,35.8969996 L59.6836219,35.3087158 Z M63.6473999,33.3682251 L64.4484253,32.6959229 L63.854187,32.3642578 L64.5491943,31.8166504 L66.0666504,32.6959229 L64.5491943,33.9121704 L63.6473999,33.3682251 Z" id="Combined-Shape" fill="#445A65" fill-rule="nonzero"></path>
                </g>
            </g>
        </g>
    </g>
</svg>