<svg width="184" height="144" viewBox="0 0 184 144" fill="none" xmlns="http://www.w3.org/2000/svg">
<path d="M184 0H0V144H184V0Z" fill="#ECEFF1"/>
<path d="M106.526 22.0906C108.31 20.8319 111.325 20.6317 113.255 21.6415L168.423 50.5064C170.355 51.5172 170.541 53.4223 168.835 54.7636L74.6518 128.842C72.9475 130.182 70.1071 130.292 68.2827 129.071L13.3776 92.3105C11.5643 91.0965 11.5416 89.0914 13.3255 87.8331" fill="black"/>
<g filter="url(#filter0_d)">
<path fill-rule="evenodd" clip-rule="evenodd" d="M106.526 22.0906C108.31 20.8319 111.325 20.6317 113.255 21.6415L168.423 50.5064C170.355 51.5172 170.541 53.4223 168.835 54.7636L74.6518 128.842C72.9475 130.182 70.1071 130.292 68.2827 129.071L13.3776 92.3105C11.5643 91.0965 11.5416 89.0914 13.3255 87.8331" fill="#77909D"/>
</g>
<path d="M26.2874 78.8469L11.6802 82.2792V90.0913L11.7036 90.1047C11.5922 91.0107 12.0492 91.9389 13.0719 92.6189L68.3579 129.379C70.1949 130.6 73.0551 130.491 74.7711 129.15L169.608 55.072C170.485 54.3872 170.865 53.5554 170.769 52.7708V44.8971L161.841 46.9948L113.642 21.9499C111.698 20.94 108.663 21.1402 106.866 22.399L26.2874 78.8469V78.8469Z" fill="#5F7D8C"/>
<path fill-rule="evenodd" clip-rule="evenodd" d="M71.9528 121.565L169.992 45.0795L161.841 46.9948L113.642 21.9499C111.698 20.94 108.663 21.1402 106.866 22.399L26.2874 78.8469L11.6802 82.2792V90.0913L11.7036 90.1047C11.5922 91.0107 12.0492 91.9389 13.0719 92.6189L68.3579 129.379C69.3672 130.05 70.6853 130.319 71.9528 130.203V121.565ZM74.7711 129.15L82.8178 122.865L74.2147 129.521C74.4105 129.41 74.5967 129.286 74.7711 129.15Z" fill="#77909D"/>
<path d="M106.866 14.6343C108.663 13.3756 111.698 13.1754 113.642 14.1852L169.193 43.0501C171.138 44.0609 171.325 45.966 169.608 47.3073L74.7709 121.385C73.0549 122.726 70.1947 122.836 68.3577 121.614L13.0717 84.8542C11.2458 83.6402 11.223 81.6351 13.0192 80.3768" fill="#B0BEC5"/>
<path d="M97.3921 21.2581L160.245 54.4771L84.2826 113.932L22.627 73.5918L97.3921 21.2581Z" fill="white"/>
<path opacity="0.7" fill-rule="evenodd" clip-rule="evenodd" d="M160.245 62.4583V54.498L84.2827 113.953V121.746L160.245 62.4583Z" fill="white"/>
<path d="M144.066 67.1403L120.478 85.6027L58.4165 48.5401L82.2582 31.8516L144.066 67.1403V67.1403Z" fill="#FFECB3"/>
<path d="M107.523 22.0926C109.308 20.8338 112.322 20.6336 114.252 21.6435L169.421 50.5084C171.353 51.5191 171.538 53.4243 169.833 54.7656L75.6493 128.844C73.9451 130.184 71.1046 130.294 69.2803 129.073L14.3751 92.3125C12.5618 91.0984 12.5392 89.0934 14.323 87.8351" fill="black"/>
<g filter="url(#filter1_d)">
<path fill-rule="evenodd" clip-rule="evenodd" d="M107.523 22.0926C109.308 20.8338 112.322 20.6336 114.252 21.6435L169.421 50.5084C171.353 51.5191 171.538 53.4243 169.833 54.7656L75.6493 128.844C73.9451 130.184 71.1046 130.294 69.2803 129.073L14.3751 92.3125C12.5618 91.0984 12.5392 89.0934 14.323 87.8351" fill="#77909D"/>
</g>
<path d="M27.2849 78.8488L12.6777 82.2812V90.0932L12.7012 90.1066C12.5898 91.0127 13.0468 91.9408 14.0695 92.6208L69.3555 129.381C71.1925 130.602 74.0526 130.492 75.7687 129.152L170.606 55.0739C171.482 54.3891 171.863 53.5574 171.766 52.7727V44.8991L162.839 46.9968L114.639 21.9518C112.696 20.942 109.661 21.1422 107.864 22.4009L27.2849 78.8488Z" fill="#5F7D8C"/>
<path fill-rule="evenodd" clip-rule="evenodd" d="M72.9504 121.567L170.99 45.0815L162.839 46.9968L114.639 21.9518C112.696 20.942 109.661 21.1422 107.864 22.4009L27.2849 78.8488L12.6777 82.2812V90.0932L12.7012 90.1066C12.5898 91.0127 13.0468 91.9408 14.0695 92.6208L69.3555 129.381C70.3647 130.052 71.6829 130.321 72.9504 130.205V121.567ZM75.7687 129.152L83.8153 122.867L75.2122 129.523C75.408 129.412 75.5943 129.288 75.7687 129.152Z" fill="#77909D"/>
<path d="M107.864 14.6363C109.66 13.3775 112.696 13.1773 114.639 14.1872L170.191 43.0521C172.136 44.0628 172.323 45.968 170.605 47.3093L75.7685 121.387C74.0524 122.728 71.1923 122.838 69.3553 121.616L14.0692 84.8562C12.2434 83.6421 12.2205 81.6371 14.0168 80.3788" fill="#B0BEC5"/>
<path d="M98.3897 21.2601L161.243 54.479L85.2801 113.934L23.6245 73.5938L98.3897 21.2601Z" fill="white"/>
<path d="M80.3301 34.8832L140.321 70.899L85.2799 113.934L23.192 73.497L80.3301 34.8832Z" fill="#FFCDD2"/>
<path d="M79.2553 27.4982L27.419 62.4832L23.4451 62V64.9649L23.4131 64.9873L86.8887 105.447L141.848 62.5066L141.858 62.5055V62.4986L141.882 62.4799L141.858 62.4669V59.4501L137.192 59.935L79.2553 27.4982Z" fill="#E53935"/>
<path d="M79.2554 24.4982L141.882 59.4799L86.8888 101.447L23.4132 61.9873L79.2554 24.4982Z" fill="#E57373"/>
<path d="M88.9041 52.3881L87.9825 52L88.9041 52.3881ZM88.7524 51.3619L89.5224 50.7239L89.5224 50.7239L88.7524 51.3619ZM82.1547 68.4155L81.233 68.0274C81.103 68.3362 81.1362 68.6895 81.3216 68.9687C81.5069 69.2478 81.8196 69.4155 82.1547 69.4155V68.4155ZM100.289 69.8839L99.4053 69.4155L100.289 69.8839ZM90.4011 88.5358L91.2847 89.0041L90.4011 88.5358ZM89.7912 89.0292L89.5176 88.0674L89.5176 88.0674L89.7912 89.0292ZM89.0129 88.9307L88.5082 89.7939L88.5082 89.7939L89.0129 88.9307ZM43.4953 62.3179L44 61.4546L44 61.4546L43.4953 62.3179ZM43.0126 61.2966L42.0252 61.1386L43.0126 61.2966ZM43.7899 60.4769L44 61.4546L43.7899 60.4769ZM87.7723 51.0223L87.5621 50.0447L87.5621 50.0447L87.7723 51.0223ZM89.1224 86.6779L88.6176 87.5412C88.8528 87.6787 89.1339 87.7143 89.396 87.6398C89.658 87.5652 89.8783 87.387 90.0059 87.1463L89.1224 86.6779ZM46.7278 61.8911L46.5177 60.9134C46.1143 61.0001 45.8056 61.3257 45.7404 61.7331C45.6752 62.1405 45.8669 62.5461 46.2231 62.7543L46.7278 61.8911ZM97.7434 70.4155L98.6269 70.8839C98.7912 70.5739 98.7811 70.2006 98.6002 69.9C98.4193 69.5994 98.0942 69.4155 97.7434 69.4155V70.4155ZM79.7269 69.0274L78.8052 68.6393V68.6393L79.7269 69.0274ZM86.3158 53.3811L87.2374 53.7692C87.3821 53.4256 87.3236 53.0301 87.0858 52.7431C86.8479 52.456 86.4701 52.3251 86.1056 52.4034L86.3158 53.3811ZM89.8257 52.7762C90.1151 52.0891 89.9982 51.298 89.5224 50.7239L87.9825 52V52L89.8257 52.7762ZM83.0763 68.8036L89.8257 52.7762L87.9825 52L81.233 68.0274L83.0763 68.8036ZM99.4053 67.4155H82.1547V69.4155H99.4053V67.4155ZM101.119 68.3844C100.757 67.7832 100.107 67.4155 99.4053 67.4155V69.4155H99.4053L101.119 68.3844ZM101.172 70.3523C101.501 69.7324 101.481 68.9856 101.119 68.3844L99.4053 69.4155H99.4053L101.172 70.3523ZM91.2847 89.0041L101.172 70.3523L99.4053 69.4155L89.5176 88.0674L91.2847 89.0041ZM90.0648 89.9911C90.5889 89.842 91.0295 89.4855 91.2847 89.0041L89.5176 88.0674V88.0674L90.0648 89.9911ZM88.5082 89.7939C88.9785 90.0689 89.5407 90.1401 90.0648 89.9911L89.5176 88.0674L89.5176 88.0674L88.5082 89.7939ZM42.9906 63.1811L88.5082 89.7939L89.5176 88.0674L44 61.4546L42.9906 63.1811ZM42.0252 61.1386C41.8948 61.9534 42.2782 62.7646 42.9906 63.1811L44 61.4546L44 61.4546L42.0252 61.1386ZM43.5797 59.4993C42.773 59.6727 42.1555 60.3238 42.0252 61.1386L44 61.4546H44L43.5797 59.4993ZM87.5621 50.0447L43.5797 59.4993L44 61.4546L87.9825 52L87.5621 50.0447ZM89.5224 50.7239C89.0467 50.1498 88.2911 49.888 87.5621 50.0447L87.9825 52L87.9825 52L89.5224 50.7239ZM89.6271 85.8146L47.2325 61.0278L46.2231 62.7543L88.6176 87.5412L89.6271 85.8146ZM96.8598 69.9472L88.2388 86.2095L90.0059 87.1463L98.6269 70.8839L96.8598 69.9472ZM80.6485 71.4155H97.7434V69.4155H80.6485V71.4155ZM78.9823 70.5218C79.3529 71.08 79.9784 71.4155 80.6485 71.4155V69.4155L78.9823 70.5218ZM78.8052 68.6393C78.5452 69.2568 78.6117 69.9636 78.9823 70.5218L80.6485 69.4155V69.4155L78.8052 68.6393ZM85.3942 52.993L78.8052 68.6393L80.6485 69.4155L87.2374 53.7692L85.3942 52.993ZM46.938 62.8687L86.526 54.3588L86.1056 52.4034L46.5177 60.9134L46.938 62.8687ZM78 41.3421C78 40.4494 79.1182 39 81.5 39V37C78.4448 37 76 38.9581 76 41.3421H78ZM81.5 43.6842C79.1182 43.6842 78 42.2348 78 41.3421H76C76 43.7261 78.4448 45.6842 81.5 45.6842V43.6842ZM85 41.3421C85 42.2348 83.8819 43.6842 81.5 43.6842V45.6842C84.5552 45.6842 87 43.7261 87 41.3421H85ZM81.5 39C83.8819 39 85 40.4494 85 41.3421H87C87 38.9581 84.5552 37 81.5 37V39ZM81.5 35C77.836 35 74 37.4155 74 41.3421H76C76 38.9532 78.4508 37 81.5 37V35ZM89 41.3421C89 37.4155 85.164 35 81.5 35V37C84.5493 37 87 38.9532 87 41.3421H89ZM81.5 47.6842C85.164 47.6842 89 45.2687 89 41.3421H87C87 43.731 84.5493 45.6842 81.5 45.6842V47.6842ZM74 41.3421C74 45.2687 77.836 47.6842 81.5 47.6842V45.6842C78.4508 45.6842 76 43.731 76 41.3421H74Z" fill="#EF9A9A"/>
<path d="M120.771 44.2756L110.745 52.1855L142.069 69.5962L152.763 61.4414L120.771 44.2756Z" fill="black" fill-opacity="0.143003"/>
<path d="M122.499 39.3438L111.735 45.2799V47.3364L143.069 64.5962L153.763 56.4414V54.5026L122.499 39.3438Z" fill="#77909D"/>
<path d="M111.506 45.1986L143.069 62.5962L153.763 54.4414L121.557 37.2568L111.506 45.1986Z" fill="#CFD8DC"/>
<path fill-rule="evenodd" clip-rule="evenodd" d="M120.683 40.8891C121.325 40.3545 122.231 40.2747 122.956 40.689L127.5 43.2855C128.105 43.6315 128.179 44.4755 127.644 44.922L123.817 48.1109C123.175 48.6455 122.269 48.7253 121.544 48.311L117 45.7145C116.395 45.3685 116.321 44.5245 116.856 44.078L120.683 40.8891Z" fill="#B0BEC5"/>
<defs>
<filter id="filter0_d" x="8.00244" y="18.998" width="166" height="116.923" filterUnits="userSpaceOnUse" color-interpolation-filters="sRGB">
<feFlood flood-opacity="0" result="BackgroundImageFix"/>
<feColorMatrix in="SourceAlpha" type="matrix" values="0 0 0 0 0 0 0 0 0 0 0 0 0 0 0 0 0 0 127 0"/>
<feOffset dy="2"/>
<feGaussianBlur stdDeviation="2"/>
<feColorMatrix type="matrix" values="0 0 0 0 0.466667 0 0 0 0 0.564706 0 0 0 0 0.615686 0 0 0 0.25 0"/>
<feBlend mode="normal" in2="BackgroundImageFix" result="effect1_dropShadow"/>
<feBlend mode="normal" in="SourceGraphic" in2="effect1_dropShadow" result="shape"/>
</filter>
<filter id="filter1_d" x="9" y="18.9999" width="166" height="116.923" filterUnits="userSpaceOnUse" color-interpolation-filters="sRGB">
<feFlood flood-opacity="0" result="BackgroundImageFix"/>
<feColorMatrix in="SourceAlpha" type="matrix" values="0 0 0 0 0 0 0 0 0 0 0 0 0 0 0 0 0 0 127 0"/>
<feOffset dy="2"/>
<feGaussianBlur stdDeviation="2"/>
<feColorMatrix type="matrix" values="0 0 0 0 0.466667 0 0 0 0 0.564706 0 0 0 0 0.615686 0 0 0 0.25 0"/>
<feBlend mode="normal" in2="BackgroundImageFix" result="effect1_dropShadow"/>
<feBlend mode="normal" in="SourceGraphic" in2="effect1_dropShadow" result="shape"/>
</filter>
</defs>
</svg>
