<?xml version="1.0" encoding="UTF-8"?>
<svg width="184px" height="144px" viewBox="0 0 184 144" version="1.1" xmlns="http://www.w3.org/2000/svg" xmlns:xlink="http://www.w3.org/1999/xlink">
    <!-- Generator: Sketch 42 (36781) - http://www.bohemiancoding.com/sketch -->
    <title>format-banner</title>
    <desc>Created with Sketch.</desc>
    <defs>
        <path d="M95.5233276,9.09263948 C97.3078296,7.83387141 100.322198,7.63370189 102.2523,8.64355636 L157.420851,37.5084518 C159.352658,38.5191982 159.538235,40.4243426 157.832902,41.7656369 L63.6493225,115.843748 C61.9450851,117.18418 59.1046264,117.294051 57.2802776,116.072613 L2.37513376,79.3125203 C0.561844823,78.098487 0.539162693,76.093424 2.32301041,74.8351174" id="path-1"></path>
        <filter x="-50%" y="-50%" width="200%" height="200%" filterUnits="objectBoundingBox" id="filter-2">
            <feOffset dx="0" dy="2" in="SourceAlpha" result="shadowOffsetOuter1"></feOffset>
            <feGaussianBlur stdDeviation="2" in="shadowOffsetOuter1" result="shadowBlurOuter1"></feGaussianBlur>
            <feColorMatrix values="0 0 0 0 0.466666667   0 0 0 0 0.564705882   0 0 0 0 0.615686275  0 0 0 1 0" type="matrix" in="shadowBlurOuter1"></feColorMatrix>
        </filter>
    </defs>
    <g id="Page-1" stroke="none" stroke-width="1" fill="none" fill-rule="evenodd">
        <g id="format-banner">
            <rect id="bound-184*144" fill="#ECEFF1" x="0" y="0" width="184" height="144"></rect>
            <g id="banner-graphic" transform="translate(11.000000, 13.000000)">
                <g id="phone">
                    <g id="shadow">
                        <use fill="black" fill-opacity="1" filter="url(#filter-2)" xlink:href="#path-1"></use>
                        <use fill="#77909D" fill-rule="evenodd" xlink:href="#path-1"></use>
                    </g>
                    <path d="M15.284727,65.8488581 L0.677524718,69.2812093 L0.677524718,77.0932678 L0.700947569,77.106675 C0.589541722,78.0127573 1.04657915,78.9408871 2.06924264,79.6208638 L57.3552632,116.380957 C59.1922674,117.602395 62.0524304,117.492523 63.7684901,116.152091 L158.60542,42.0739804 C159.482103,41.3891946 159.862496,40.5574401 159.765987,39.7727712 L159.765987,31.8991381 L150.838844,33.996808 L102.639257,8.9518999 C100.695765,7.94204544 97.6604862,8.14221495 95.8636051,9.40098303 L15.284727,65.8488581 L15.284727,65.8488581 Z" id="Combined-Shape" fill="#5F7D8C"></path>
                    <path d="M158.98978,32.0815286 L60.9501953,108.567383 L60.9501953,117.205301 C59.682656,117.321242 58.3645371,117.05203 57.3552632,116.380957 L2.06924264,79.6208638 C1.04657915,78.9408871 0.589541722,78.0127573 0.700947569,77.106675 L0.677524718,77.0932678 L0.677524718,69.2812093 L15.284727,65.8488581 L15.284727,65.8488581 L95.8636051,9.40098303 C97.6604862,8.14221495 100.695765,7.94204544 102.639257,8.9518999 L150.838844,33.996808 L158.98978,32.0815286 Z M71.8151108,109.866792 L63.7684901,116.152091 C63.594064,116.288337 63.4078177,116.41187 63.2120271,116.522583 L71.8151108,109.866792 Z" id="Combined-Shape" fill="#77909D"></path>
                    <path d="M95.8636051,1.63631627 C97.6604862,0.377548197 100.695765,0.177378679 102.639257,1.18723315 L158.190511,30.0521286 C160.135719,31.0628749 160.322584,32.9680194 158.60542,34.3093136 L63.7684901,108.387425 C62.0524304,109.727857 59.1922674,109.837728 57.3552632,108.61629 L2.06924264,71.856197 C0.243374929,70.6421638 0.220535453,68.6371007 2.01675771,67.3787942" id="phone-" fill="#B0BEC5"></path>
                    <polygon id="screen" fill="#FFFFFF" points="86.3894774 8.26008864 149.242585 41.4790565 73.2799258 100.933789 11.6242938 60.59378"></polygon>
                    <polygon id="banner-shade" fill="#FFECB3" points="133.063362 54.1422695 109.474751 72.6046905 47.4136694 35.5421444 71.2553704 18.8535714 133.063362 54.1422695"></polygon>
                </g>
                <g id="banner" transform="translate(49.000000, 1.000000)">
                    <polygon id="Combined-Shape" fill="#F9A825" points="0.270751953 23.8366699 0.270751953 26.9415283 61.5505216 63.0893555 85.8822273 44.6799316 85.8822273 41.4755859 77.067964 39.9067425 23.0442646 10.6916832 3.29098233 24.6986648"></polygon>
                    <polygon id="magic-mirror" fill="#FFC107" transform="translate(42.941114, 32.896253) rotate(30.000000) translate(-42.941114, -32.896253) " points="13.1936901 20.7438834 84.4210508 18.8593848 72.6279426 46.9331221 1.46117651 46.4069488"></polygon>
                    <path d="M42.013916,26 L72.1677246,43.3366699 L69.1499023,45.5708008 L39,27.9946289 L42.013916,26 Z M36.013916,31 L66.1677246,48.3366699 L63.1499023,50.5708008 L33,32.9946289 L36.013916,31 Z M24.5,30 C19.2532949,30 15,26.6421356 15,22.5 C15,18.3578644 19.2532949,15 24.5,15 C29.7467051,15 34,18.3578644 34,22.5 C34,26.6421356 29.7467051,30 24.5,30 Z" id="Combined-Shape" fill="#FEDF88"></path>
                </g>
            </g>
        </g>
    </g>
</svg>