<?xml version="1.0" encoding="UTF-8"?>
<svg width="184px" height="144px" viewBox="0 0 184 144" version="1.1" xmlns="http://www.w3.org/2000/svg" xmlns:xlink="http://www.w3.org/1999/xlink">
    <!-- Generator: Sketch 42 (36781) - http://www.bohemiancoding.com/sketch -->
    <title>format-rewarded interstitial </title>
    <desc>Created with Sketch.</desc>
    <defs>
        <path d="M95.5233276,9.09263948 C97.3078296,7.83387141 100.322198,7.63370189 102.2523,8.64355636 L157.420851,37.5084518 C159.352658,38.5191982 159.538235,40.4243426 157.832902,41.7656369 L63.6493225,115.843748 C61.9450851,117.18418 59.1046264,117.294051 57.2802776,116.072613 L2.37513376,79.3125203 C0.561844823,78.098487 0.539162693,76.093424 2.32301041,74.8351174" id="path-1"></path>
        <filter x="-50%" y="-50%" width="200%" height="200%" filterUnits="objectBoundingBox" id="filter-2">
            <feOffset dx="0" dy="2" in="SourceAlpha" result="shadowOffsetOuter1"></feOffset>
            <feGaussianBlur stdDeviation="2" in="shadowOffsetOuter1" result="shadowBlurOuter1"></feGaussianBlur>
            <feColorMatrix values="0 0 0 0 0.466666667   0 0 0 0 0.564705882   0 0 0 0 0.615686275  0 0 0 1 0" type="matrix" in="shadowBlurOuter1"></feColorMatrix>
        </filter>
    </defs>
    <g id="Page-1" stroke="none" stroke-width="1" fill="none" fill-rule="evenodd">
        <g id="format-rewarded-interstitial-">
            <rect id="bound-184*144" fill="#ECEFF1" x="0" y="0" width="184" height="144"></rect>
            <g id="rewarded-interstitial-" transform="translate(12.000000, -7.000000)">
                <g id="phone" transform="translate(0.000000, 20.000000)">
                    <g id="shadow">
                        <use fill="black" fill-opacity="1" filter="url(#filter-2)" xlink:href="#path-1"></use>
                        <use fill="#77909D" fill-rule="evenodd" xlink:href="#path-1"></use>
                    </g>
                    <path d="M15.284727,65.8488581 L0.677524718,69.2812093 L0.677524718,77.0932678 L0.700947569,77.106675 C0.589541722,78.0127573 1.04657915,78.9408871 2.06924264,79.6208638 L57.3552632,116.380957 C59.1922674,117.602395 62.0524304,117.492523 63.7684901,116.152091 L158.60542,42.0739804 C159.482103,41.3891946 159.862496,40.5574401 159.765987,39.7727712 L159.765987,31.8991381 L150.838844,33.996808 L102.639257,8.9518999 C100.695765,7.94204544 97.6604862,8.14221495 95.8636051,9.40098303 L15.284727,65.8488581 L15.284727,65.8488581 Z" id="Combined-Shape" fill="#5F7D8C"></path>
                    <path d="M158.98978,32.0815286 L60.9501953,108.567383 L60.9501953,117.205301 C59.682656,117.321242 58.3645371,117.05203 57.3552632,116.380957 L2.06924264,79.6208638 C1.04657915,78.9408871 0.589541722,78.0127573 0.700947569,77.106675 L0.677524718,77.0932678 L0.677524718,69.2812093 L15.284727,65.8488581 L15.284727,65.8488581 L95.8636051,9.40098303 C97.6604862,8.14221495 100.695765,7.94204544 102.639257,8.9518999 L150.838844,33.996808 L158.98978,32.0815286 Z M71.8151108,109.866792 L63.7684901,116.152091 C63.594064,116.288337 63.4078177,116.41187 63.2120271,116.522583 L71.8151108,109.866792 Z" id="Combined-Shape" fill="#77909D"></path>
                    <path d="M95.8636051,1.63631627 C97.6604862,0.377548197 100.695765,0.177378679 102.639257,1.18723315 L158.190511,30.0521286 C160.135719,31.0628749 160.322584,32.9680194 158.60542,34.3093136 L63.7684901,108.387425 C62.0524304,109.727857 59.1922674,109.837728 57.3552632,108.61629 L2.06924264,71.856197 C0.243374929,70.6421638 0.220535453,68.6371007 2.01675771,67.3787942" id="phone-" fill="#B0BEC5"></path>
                    <polygon id="screen" fill="#FFFFFF" points="86.3894774 8.26008864 149.242585 41.4790565 73.2799258 100.933789 11.6242938 60.59378"></polygon>
                    <polygon id="banner-shade" fill="#FFECB3" points="133.063362 54.1422695 109.474751 72.6046905 47.4136694 35.5421444 71.2553704 18.8535714 133.063362 54.1422695"></polygon>
                </g>
                <g id="reward" transform="translate(13.000000, 0.000000)">
                    <polygon id="shade" fill="#B1DFDB" transform="translate(66.585916, 72.647040) rotate(30.000000) translate(-66.585916, -72.647040) " points="50.1786366 32.7404743 119.481387 32.9755775 87.3825731 112.553606 13.6904445 109.060603"></polygon>
                    <polygon id="Combined-Shape" fill="#00695C" points="129.192036 53.9350192 71.2552742 22.4982805 8.41898101 66.4832156 3.44506836 67 3.44506836 69.9649172 3.41308594 69.9873047 64.8886719 110.447266 133.848127 56.5066107 133.858337 56.5055542 133.858337 56.498624 133.882227 56.4799371 133.858337 56.4669744 133.858337 53.4501953 129.192036 53.9350192"></polygon>
                    <polygon id="magic-mirror" fill="#008A7B" transform="translate(67.572266, 62.096251) rotate(30.000000) translate(-67.572266, -62.096251) " points="49.4628592 23.3638225 120.69022 21.4793239 87.9237124 102.713179 14.4543128 98.411618"></polygon>
                    <path d="M65.0022534,38.9710629 L66.3118415,59.9383534 C66.3496838,60.5442315 66.8533913,61.0123039 67.4540477,60.9997534 L100.894532,60.3010282 C101.463968,60.28913 101.934108,59.8477348 101.987641,59.2747529 L102.995016,48.4923653 C103.036887,48.0442076 102.812231,47.6135114 102.422686,47.3951276 L80.566472,35.1422635 C80.3349989,35.0124968 80.0655549,34.9696684 79.8058343,35.0213591 L65.904601,37.7880457 C65.3527543,37.8978767 64.9668258,38.4038459 65.0022534,38.9710629 Z M70.1774209,39.2472007 L79.8370014,37.3247072 L84.4188038,39.8933223 L76.1181111,42.8727382 L70.1774209,39.2472007 Z M67.3221512,40.1387258 L74.5300824,44.5376464 L68.3206955,56.1260194 L67.3221512,40.1387258 Z M90.0398724,51.369035 L78.5861524,44.3789565 L87.0201756,41.3516835 L93.4476357,44.9549971 L90.0398724,51.369035 Z M87.3386968,52.354602 L70.341774,57.082679 L76.4393999,45.7028818 L87.3386968,52.354602 Z M99.9109497,57.3932441 L91.9495109,52.5344662 L95.3961084,46.0473351 L100.693513,49.0171254 L99.9109497,57.3932441 Z M96.7862962,58.1203673 L73.2487265,58.6121752 L89.9703591,53.9606763 L96.7862962,58.1203673 Z" id="diamond" fill="#48B6AC" fill-rule="nonzero"></path>
                    <path d="M52.1944444,85 C44.7248721,85 38.5,80.0856273 38.5,73.75 C38.5,67.4143727 44.7248721,62.5 52.1944444,62.5 C59.6640168,62.5 65.8888889,67.4143727 65.8888889,73.75 C65.8888889,80.0856273 59.6640168,85 52.1944444,85 Z M43.1113281,74.7841797 L59.3969727,77.4995117 L53.6230469,66.9033203 L43.1113281,74.7841797 Z" id="play" fill="#48B6AC" fill-rule="nonzero"></path>
                </g>
            </g>
        </g>
    </g>
</svg>